<svg version="1.1" xmlns="http://www.w3.org/2000/svg" xmlns:xlink="http://www.w3.org/1999/xlink" width="612" height="732" viewBox="0,0,214.03125,256"><g fill="#ffffff" fill-rule="nonzero" stroke="none" stroke-width="1" stroke-linecap="butt" stroke-linejoin="miter" stroke-miterlimit="10" stroke-dasharray="" stroke-dashoffset="0" font-family="none" font-weight="none" font-size="none" text-anchor="none" style="mix-blend-mode: normal"><g transform="translate(4.08694,-1.08087) scale(0.34973,0.34973)"><g id="Layer"><path d="M462.9,18.7c-0.9,0.2 -11,10.6 -22.5,23.1c-11.5,12.5 -22.9,24.9 -25.4,27.5l-4.5,4.8l-28.5,0.3c-15.7,0.2 -31.6,0.8 -35.5,1.5c-3.8,0.6 -10.1,1.6 -14,2.2c-31.6,4.7 -66.4,15.8 -95.8,30.5c-92.6,46.4 -159,132.5 -179.2,232.7c-5.7,28.3 -5.9,32.7 -6,93.1v55.8l9.5,5.6c5.2,3 11.9,6.9 14.9,8.6c3,1.7 5.6,3.6 5.8,4.2c0.2,0.7 -5.4,4.5 -12.4,8.5c-7,4 -14,8.1 -15.5,9.1l-2.8,1.9v63.2c0,38.9 -0.4,65.7 -1.1,69.6c-2.6,16.1 -11,30.1 -25.5,42.2c-7,5.8 -8.4,7.5 -8.4,9.9c0,1.9 0.9,3.5 2.6,4.9l2.7,2.1h233.3c142.9,0 234.2,-0.4 235.7,-0.9c5.5,-2.1 8.2,-8.1 6.1,-13.5c-0.3,-0.8 -4.5,-5 -9.2,-9.2c-13.2,-11.6 -40.2,-38.5 -51.6,-51.4c-57.5,-65 -98.8,-142.7 -118.1,-222c-1.8,-7.4 -3.7,-16.7 -4.4,-20.5c-0.6,-3.9 -1.6,-10.4 -2.3,-14.5c-2.5,-16.3 -0.3,-76.9 3,-80.2c1.6,-1.6 2.9,2 3.6,10.2c2.6,29.2 8,57.4 16.7,88c14.7,51.2 42.5,106.7 76.9,153.2c5.3,7.1 7,8.8 9.1,8.8c4.5,0 32.6,-6.7 58.4,-14c9.6,-2.7 24.3,-7.4 33,-10.5c5.5,-2 11.9,-4.3 14.3,-5.1c2.4,-0.8 6.3,-2.4 8.7,-3.4c5.3,-2.3 5.5,-3.5 2.6,-15.6c-2.6,-10.3 -6.7,-34.3 -8,-46.9c-4.9,-45 -3.4,-120.5 3.4,-174c2.2,-16.8 7.1,-46.9 9.4,-57c0.5,-2.2 1.4,-6 2,-8.5c7.7,-33.7 16.1,-62.7 26.1,-90c1.7,-4.6 2.8,-9 2.6,-9.6c-0.3,-0.7 -3.8,-3.5 -7.8,-6.2c-18.8,-12.6 -46.7,-26.8 -70.8,-36.1c-7.4,-2.9 -14.5,-5.6 -15.7,-6.1c-1.7,-0.7 -2.3,-1.8 -2.3,-4.2c-0.1,-1.8 -0.7,-15.6 -1.4,-30.7l-1.3,-27.5l-2.7,-2.3c-2.6,-2.2 -4.2,-2.6 -7.7,-1.6z" id="Layer"></path></g></g></g></svg>